#N canvas 0 22 420 296 10;
#X obj 163 70 inlet;
#X floatatom 128 105 10 0 0 0 - - -;
#X obj 41 236 outlet~;
#X obj 105 236 outlet~;
#X obj 30 69 inlet~;
#X text 210 66 amount to shift freq in Hz.;
#X obj 77 70 inlet~;
#N canvas 634 243 450 300 cosc~ 0;
#X obj 120 154 cos~;
#X obj 165 154 cos~;
#X obj 120 97 phasor~;
#X obj 157 124 +~ 0.25;
#X obj 120 65 inlet;
#X obj 130 220 outlet~;
#X obj 194 220 outlet~;
#X connect 0 0 5 0;
#X connect 1 0 6 0;
#X connect 2 0 0 0;
#X connect 2 0 3 0;
#X connect 3 0 1 0;
#X connect 4 0 2 0;
#X restore 128 133 pd cosc~;
#X text 33 21 complex signal mixer for SDR;
#N canvas 599 383 450 300 cmul~ 1;
#X obj 125 101 *~;
#X obj 182 103 *~;
#X obj 115 33 inlet~;
#X obj 184 33 inlet~;
#X obj 254 32 inlet~;
#X obj 325 32 inlet~;
#X obj 125 203 outlet~;
#X obj 246 202 outlet~;
#X obj 239 103 *~;
#X obj 298 103 *~;
#X obj 125 152 -~;
#X obj 245 152 +~;
#X connect 0 0 10 0;
#X connect 1 0 10 1;
#X connect 2 0 0 0;
#X connect 2 0 9 1;
#X connect 3 0 1 0;
#X connect 3 0 8 1;
#X connect 4 0 8 0;
#X connect 4 0 0 1;
#X connect 5 0 1 1;
#X connect 5 0 9 0;
#X connect 8 0 11 0;
#X connect 9 0 11 1;
#X connect 10 0 6 0;
#X connect 11 0 7 0;
#X restore 63 194 pd cmul~;
#X text 37 262 signal out;
#X text 51 46 signal in;
#X connect 0 0 1 0;
#X connect 1 0 7 0;
#X connect 4 0 9 0;
#X connect 6 0 9 1;
#X connect 7 0 9 2;
#X connect 7 1 9 3;
#X connect 9 0 2 0;
#X connect 9 1 3 0;
